<svg width="40" height="40" viewBox="0 0 40 40" fill="none" xmlns="http://www.w3.org/2000/svg">
<mask id="mask0_1304_2544" style="mask-type:luminance" maskUnits="userSpaceOnUse" x="0" y="0" width="40" height="40">
<path d="M0 0H40V40H0V0Z" fill="white"/>
</mask>
<g mask="url(#mask0_1304_2544)">
<path d="M6.88789 29.6928C7.53956 29.6922 8.18615 29.8076 8.79734 30.0337C9.29078 30.2164 9.83563 29.9924 10.0886 29.5309C10.4521 28.8677 11.178 28.4511 11.9553 28.4976C12.2068 28.5127 12.4316 28.3428 12.4727 28.0943C12.8923 25.5574 15.0948 23.6225 17.7506 23.6225C19.8921 23.6225 21.7389 24.8807 22.5939 26.6981C22.8396 27.2202 23.3884 27.5367 23.9618 27.4734C25.9551 27.253 27.7722 28.5983 28.2534 30.4579C28.7589 30.1586 29.3358 30.0011 29.9234 30.002C31.5543 30.002 32.907 31.1904 33.1647 32.7483C33.1899 32.9009 33.328 33.0053 33.4824 32.996C33.8605 32.9734 34.2184 33.1299 34.4619 33.3981C37.3765 30.0395 39.1406 25.6554 39.1406 20.8594C39.1406 10.2882 30.5711 1.71868 20 1.71868C9.42891 1.71868 0.859375 10.2882 0.859375 20.8594C0.859375 24.4864 1.86844 27.8778 3.62086 30.7683C4.53672 30.0928 5.6668 29.6928 6.88789 29.6928Z" fill="#514BBF"/>
<path d="M32.0425 22.5977C30.0392 23.2968 27.856 23.6118 25.5802 23.4527C17.8751 22.9145 11.0997 16.0534 10.6515 8.34258C10.4931 5.6168 11.0133 3.02734 12.0582 0.726796C12.2658 0.269687 11.7597 -0.182813 11.329 0.0752338C6.68544 2.85711 3.55888 7.91055 3.48662 13.7004C3.40755 20.0428 7.04294 25.5966 12.3578 28.2898C12.4615 28.2042 12.5307 28.0839 12.5528 27.9512C12.9748 25.3996 15.1608 23.5476 17.7504 23.5476C19.7821 23.5476 21.6543 24.7366 22.52 26.5766C22.7827 27.1348 23.3664 27.4641 23.9704 27.398C25.0326 27.2802 26.0731 27.6302 26.8676 28.2862C29.1495 27.1292 31.1246 25.4475 32.6307 23.3791C32.9264 22.9732 32.5167 22.4323 32.0425 22.5977Z" fill="#FDCA00"/>
<path d="M7.26865 10.9533C7.32154 6.71375 9.01216 2.8693 11.7368 0.022188C11.6101 -0.0166401 11.4658 -0.00679803 11.329 0.0751551C6.68537 2.85711 3.55888 7.91054 3.48662 13.7004C3.40748 20.0427 7.04287 25.5966 12.3578 28.2898C12.4615 28.2042 12.5307 28.0839 12.5528 27.9512C12.7797 26.5789 13.5174 25.4095 14.5533 24.6212C10.1157 21.6965 7.19771 16.6423 7.26865 10.9533Z" fill="#FEAC00"/>
<path d="M11.9209 20.8116C11.9209 21.5357 11.3339 22.1227 10.6099 22.1227C9.88586 22.1227 9.29883 21.5357 9.29883 20.8116C9.29883 20.0875 9.88586 19.5006 10.6099 19.5006C11.3339 19.5006 11.9209 20.0875 11.9209 20.8116Z" fill="#FEAC00"/>
<path d="M14.1611 23.5391C14.1611 24.0836 13.7198 24.5249 13.1753 24.5249C12.6308 24.5249 12.1895 24.0836 12.1895 23.5391C12.1895 22.9946 12.6308 22.5533 13.1753 22.5533C13.7198 22.5533 14.1611 22.9946 14.1611 23.5391Z" fill="#FEAC00"/>
<path d="M12.1899 19.1583C12.1899 19.3321 12.1209 19.4989 11.9979 19.6218C11.875 19.7447 11.7083 19.8138 11.5344 19.8138C11.3606 19.8138 11.1938 19.7447 11.0709 19.6218C10.948 19.4989 10.8789 19.3321 10.8789 19.1583C10.8789 18.9844 10.948 18.8177 11.0709 18.6948C11.1938 18.5718 11.3606 18.5028 11.5344 18.5028C11.7083 18.5028 11.875 18.5718 11.9979 18.6948C12.1209 18.8177 12.1899 18.9844 12.1899 19.1583Z" fill="#FEAC00"/>
<path d="M12.0252 17.2151C12.669 17.2151 13.265 17.0117 13.7538 16.6666C12.572 15.0601 11.6734 13.2535 11.1493 11.3419C9.91883 11.7168 9.02344 12.8604 9.02344 14.2134C9.02344 15.8712 10.3673 17.2151 12.0252 17.2151Z" fill="#FEAC00"/>
<path d="M20.0891 39.9186H19.7526C19.5329 39.9184 19.3157 39.872 19.1151 39.7824C18.9146 39.6928 18.7351 39.5619 18.5884 39.3984C18.2881 39.0632 18.1502 38.6298 18.1998 38.1784C18.2781 37.4659 18.8516 36.8881 19.5631 36.8045C19.7655 36.7807 19.9654 36.7948 20.1577 36.8463C20.455 36.9261 20.7629 36.8263 20.943 36.5928C21.3737 36.0341 21.9854 35.6335 22.6655 35.4649C23.1203 35.3523 23.4493 34.9538 23.4841 34.4736C23.53 33.8432 23.8418 33.2441 24.3397 32.8298C24.8409 32.4127 25.4659 32.2216 26.1 32.2916C26.4845 32.3344 26.8557 32.1243 27.0227 31.7693C27.2977 31.1849 27.7405 30.7099 28.2761 30.3881C27.8299 28.4838 25.9863 27.0934 23.9621 27.3171C23.3887 27.3805 22.8399 27.064 22.5942 26.5419C21.7392 24.7245 19.8924 23.4663 17.7509 23.4663C15.0952 23.4663 12.8927 25.4012 12.4731 27.938C12.432 28.1866 12.2071 28.3564 11.9557 28.3414C11.1784 28.2949 10.4524 28.7116 10.0889 29.3747C9.83602 29.8361 9.29109 30.0602 8.79773 29.8775C8.18652 29.6514 7.53991 29.5359 6.8882 29.5366C5.63859 29.5366 4.48359 29.9548 3.55664 30.6591C6.89758 36.2531 13.0109 40 20.0003 40C20.03 40 20.0595 39.999 20.0891 39.9988V39.9186Z" fill="#8589E5"/>
<path d="M11.5017 35.1175C12.0992 34.8573 12.7382 34.7056 13.3889 34.6696C13.9143 34.6406 14.3248 34.218 14.373 33.694C14.4423 32.941 14.9422 32.2696 15.6737 32.0026C15.9103 31.9162 16.0488 31.6709 15.9876 31.4266C15.3619 28.9325 16.6112 26.2804 19.0472 25.2224C19.7451 24.9183 20.5002 24.7674 21.2614 24.7797C20.322 23.9617 19.0945 23.4662 17.7509 23.4662C15.0952 23.4662 12.8927 25.4012 12.4731 27.9381C12.432 28.1866 12.2071 28.3564 11.9557 28.3414C11.1784 28.2949 10.4524 28.7116 10.0889 29.3747C9.83602 29.8361 9.29109 30.0602 8.79773 29.8775C8.18652 29.6514 7.53991 29.5359 6.8882 29.5366C5.63859 29.5366 4.48359 29.9548 3.55664 30.6591C5.01591 33.1008 6.99831 35.1885 9.36117 36.7722C9.92523 36.0504 10.6612 35.4816 11.5017 35.1175Z" fill="#7A79DE"/>
<path d="M23.3029 15.1603C23.5197 14.9491 23.4 14.5809 23.1004 14.5373L22.3915 14.4343C22.3329 14.4258 22.2773 14.4031 22.2294 14.3683C22.1814 14.3335 22.1427 14.2875 22.1165 14.2344L21.7995 13.5921C21.6654 13.3206 21.2784 13.3206 21.1443 13.5921L20.8273 14.2344C20.8011 14.2875 20.7624 14.3335 20.7145 14.3683C20.6666 14.4031 20.6109 14.4258 20.5523 14.4343L19.8434 14.5373C19.5438 14.5809 19.4242 14.9491 19.641 15.1603L20.154 15.6603C20.1964 15.7016 20.2281 15.7527 20.2464 15.809C20.2647 15.8654 20.269 15.9253 20.259 15.9837L20.1379 16.6897C20.0867 16.9881 20.3999 17.2157 20.6679 17.0748L21.302 16.7414C21.3544 16.7138 21.4127 16.6994 21.4719 16.6994C21.5311 16.6994 21.5894 16.7138 21.6418 16.7414L22.2759 17.0748C22.5439 17.2157 22.8572 16.9881 22.806 16.6897L22.6849 15.9837C22.6749 15.9253 22.6792 15.8654 22.6975 15.809C22.7158 15.7527 22.7475 15.7016 22.7899 15.6603L23.3029 15.1603Z" fill="#FFF442"/>
<path d="M21.1633 16.3577L21.2844 15.6516C21.2944 15.5933 21.2901 15.5333 21.2718 15.477C21.2535 15.4207 21.2218 15.3696 21.1794 15.3283L20.6664 14.8283C20.5501 14.715 20.5313 14.5569 20.5844 14.4276C20.5738 14.4301 20.5632 14.4327 20.5523 14.4343L19.8434 14.5373C19.5437 14.5809 19.4242 14.949 19.641 15.1603L20.154 15.6603C20.1964 15.7017 20.2281 15.7527 20.2464 15.809C20.2647 15.8654 20.269 15.9253 20.259 15.9837L20.1379 16.6897C20.0867 16.988 20.3999 17.2155 20.6679 17.0748L21.3019 16.7414C21.3112 16.7366 21.3209 16.7327 21.3304 16.7286C21.2126 16.6549 21.136 16.5166 21.1633 16.3577Z" fill="#FDCA00"/>
<path d="M20.0277 8.20265C20.3169 7.92078 20.1573 7.42961 19.7577 7.37148L18.812 7.23414C18.7338 7.22278 18.6595 7.19257 18.5956 7.14612C18.5317 7.09967 18.48 7.03836 18.4451 6.9675L18.0222 6.1107C17.8434 5.74851 17.327 5.74851 17.1484 6.1107L16.7253 6.9675C16.6904 7.03836 16.6388 7.09967 16.5749 7.14612C16.511 7.19257 16.4367 7.22278 16.3585 7.23414L15.4129 7.37148C15.0131 7.42961 14.8536 7.92078 15.1428 8.20265L15.827 8.86961C15.8836 8.92476 15.926 8.99285 15.9504 9.06801C15.9748 9.14316 15.9806 9.22313 15.9672 9.30101L15.8057 10.2427C15.7374 10.6409 16.1552 10.9444 16.5127 10.7564L17.3585 10.3117C17.4285 10.275 17.5063 10.2558 17.5853 10.2558C17.6643 10.2558 17.7421 10.275 17.812 10.3117L18.6578 10.7564C19.0152 10.9444 19.4331 10.6409 19.3649 10.2427L19.2032 9.30101C19.1899 9.22313 19.1957 9.14317 19.2201 9.06802C19.2445 8.99288 19.2868 8.92478 19.3434 8.86961L20.0277 8.20265Z" fill="#FFE400"/>
<path d="M17.2315 9.80335L17.393 8.86156C17.4063 8.78369 17.4006 8.70373 17.3762 8.62859C17.3517 8.55345 17.3094 8.48537 17.2528 8.43023L16.5686 7.76328C16.4063 7.60499 16.3854 7.38078 16.469 7.20429C16.4335 7.21857 16.3964 7.22858 16.3585 7.23413L15.4129 7.37156C15.0131 7.42968 14.8536 7.92078 15.1428 8.20273L15.827 8.86968C15.8836 8.92482 15.926 8.9929 15.9504 9.06804C15.9748 9.14319 15.9806 9.22314 15.9672 9.30101L15.8057 10.2428C15.7374 10.6409 16.1552 10.9444 16.5127 10.7565L17.3585 10.3119C17.3813 10.2998 17.4051 10.2904 17.4291 10.2823C17.2863 10.1805 17.1971 10.0041 17.2315 9.80335Z" fill="#FDCA00"/>
<path d="M23.0362 11.1697C22.9155 11.1698 22.7975 11.134 22.6971 11.067C22.5967 10.9999 22.5184 10.9046 22.4722 10.793C22.426 10.6815 22.414 10.5588 22.4375 10.4404C22.4611 10.322 22.5193 10.2132 22.6047 10.1279L23.5444 9.18813C23.601 9.13145 23.6683 9.08649 23.7424 9.05581C23.8164 9.02513 23.8958 9.00934 23.9759 9.00933C24.0561 9.00932 24.1354 9.0251 24.2095 9.05577C24.2835 9.08643 24.3508 9.13138 24.4075 9.18805C24.4642 9.24471 24.5092 9.31198 24.5398 9.38602C24.5705 9.46005 24.5863 9.53941 24.5863 9.61956C24.5863 9.6997 24.5706 9.77907 24.5399 9.85311C24.5092 9.92716 24.4643 9.99443 24.4076 10.0511L23.4677 10.9909C23.4111 11.0477 23.3439 11.0927 23.2698 11.1234C23.1958 11.154 23.1164 11.1698 23.0362 11.1697Z" fill="#FDCA00"/>
<path d="M34.5282 33.3204C34.2863 33.0043 33.8964 32.8151 33.4825 32.8398C33.3282 32.8491 33.19 32.7448 33.1648 32.5921C32.9071 31.0341 31.5545 29.8457 29.9235 29.8457C28.6082 29.8457 27.474 30.6185 26.9489 31.7347C26.798 32.0553 26.461 32.2498 26.1088 32.2108C24.7376 32.0591 23.5012 33.1137 23.4028 34.4677C23.3709 34.907 23.0733 35.28 22.6457 35.3859C21.9314 35.563 21.3132 35.9791 20.8783 36.5431C20.7151 36.7548 20.4366 36.8369 20.1784 36.7677C19.9747 36.7135 19.7626 36.6985 19.5534 36.7237C18.8031 36.8118 18.2014 37.4185 18.1187 38.1694C18.0139 39.1206 18.7217 39.9309 19.6353 39.9954C19.7567 39.9977 19.8782 40 20.0001 40C25.8118 40 31.0178 37.4093 34.5282 33.3204Z" fill="#7A79DE"/>
<path d="M23.9759 11.1697C23.8196 11.1697 23.6635 11.1101 23.5443 10.9909L22.6045 10.0511C22.5479 9.99443 22.5029 9.92716 22.4722 9.85311C22.4416 9.77907 22.4258 9.6997 22.4258 9.61956C22.4258 9.53941 22.4416 9.46006 22.4723 9.38602C22.503 9.31198 22.5479 9.24471 22.6046 9.18805C22.6613 9.13138 22.7286 9.08642 22.8026 9.05575C22.8766 9.02508 22.956 9.0093 23.0361 9.0093C23.1163 9.00931 23.1957 9.02511 23.2697 9.05579C23.3437 9.08647 23.411 9.13144 23.4677 9.18813L24.4074 10.1279C24.4928 10.2132 24.551 10.322 24.5746 10.4404C24.5982 10.5588 24.5861 10.6815 24.5399 10.7931C24.4937 10.9046 24.4154 10.9999 24.315 11.067C24.2146 11.134 24.0966 11.1698 23.9759 11.1697Z" fill="#FFE400"/>
<path d="M34.4387 8.29485C33.4277 8.83368 32.6858 9.8129 32.4724 10.9792C32.4008 11.371 32.0641 11.665 31.666 11.6756C29.8545 11.7246 28.3321 13.0545 28.0122 14.8115C27.937 15.2245 27.5613 15.5275 27.1421 15.5048C25.9026 15.4377 24.7507 16.4017 24.7194 17.7473C24.6891 19.0434 25.78 20.1045 27.0765 20.1045H39.1242C38.949 15.5918 37.2128 11.4801 34.4387 8.29485Z" fill="#4843A7"/>
</g>
</svg>
