<svg width="40" height="40" viewBox="0 0 40 40" fill="none" xmlns="http://www.w3.org/2000/svg">
<g filter="url(#filter0_d_1304_2533)">
<path d="M7.40527 21.032C7.40527 14.09 13.0334 8.46196 19.9758 8.46196C26.9179 8.46196 32.546 14.09 32.546 21.0321V27.5556H7.40535L7.40527 21.032Z" fill="#FDC202"/>
<path d="M21.4044 8.54187C15.1346 9.25109 10.2624 14.5731 10.2624 21.0321V27.5559H7.40539V21.032C7.40539 14.0898 13.0335 8.4618 19.9759 8.4618C20.459 8.4618 20.9357 8.48875 21.4044 8.54187ZM19.9759 4.98674e-09C19.8955 -1.02569e-05 19.8159 0.0158174 19.7416 0.0465791C19.6674 0.0773408 19.5999 0.122434 19.543 0.179283C19.4862 0.236132 19.4411 0.303623 19.4103 0.377901C19.3796 0.45218 19.3637 0.531791 19.3637 0.612187V3.4418C19.3637 3.77992 19.6377 4.0543 19.9759 4.0543C20.314 4.0543 20.588 3.77992 20.588 3.4418V0.612109C20.588 0.531719 20.5722 0.452117 20.5414 0.377847C20.5107 0.303578 20.4656 0.236096 20.4087 0.179255C20.3519 0.122414 20.2844 0.0773284 20.2101 0.0465716C20.1359 0.0158149 20.0562 -1.02554e-05 19.9759 4.98674e-09H19.9759ZM12.7176 2.39438C12.662 2.2418 12.5482 2.11754 12.401 2.04892C12.2539 1.9803 12.0855 1.97295 11.9329 2.02848C11.7804 2.08401 11.6561 2.19787 11.5875 2.34502C11.5189 2.49217 11.5115 2.66055 11.567 2.81312L12.5348 5.47242C12.6504 5.79008 13.002 5.95367 13.3194 5.83828C13.4719 5.78269 13.5962 5.66879 13.6648 5.52162C13.7334 5.37444 13.7408 5.20604 13.6853 5.05344L12.7176 2.39438ZM6.05562 6.70563C5.83805 6.44688 5.45195 6.41297 5.19312 6.63023C4.93406 6.8475 4.90015 7.23391 5.1175 7.49273L6.93633 9.66031C6.99376 9.72894 7.06557 9.78411 7.14668 9.82192C7.22779 9.85973 7.31621 9.87927 7.4057 9.87914C7.92086 9.87914 8.20984 9.27305 7.87445 8.87328L6.05562 6.70563ZM4.12078 14.2636L1.67023 12.8488C1.37726 12.6798 1.00281 12.7802 0.834061 13.0728C0.793836 13.1424 0.767721 13.2193 0.757208 13.299C0.746695 13.3788 0.75199 13.4598 0.772789 13.5374C0.793588 13.6151 0.829485 13.6879 0.87843 13.7517C0.927375 13.8155 0.988408 13.8691 1.05804 13.9093L3.50859 15.3241C3.57823 15.3643 3.65509 15.3904 3.7348 15.4009C3.81451 15.4113 3.89551 15.406 3.97315 15.3852C4.0508 15.3643 4.12359 15.3284 4.18735 15.2794C4.25111 15.2305 4.3046 15.1694 4.34476 15.0998C4.42592 14.9592 4.44792 14.7921 4.40592 14.6353C4.36391 14.4785 4.26135 14.3448 4.12078 14.2636ZM28.0188 2.02852C27.9433 2.00102 27.863 1.98868 27.7827 1.99221C27.7024 1.99573 27.6235 2.01505 27.5507 2.04905C27.4778 2.08306 27.4123 2.13108 27.3581 2.19039C27.3038 2.24969 27.2617 2.31912 27.2342 2.39469L26.2662 5.05367C26.1505 5.37141 26.3147 5.72266 26.6321 5.83828C26.7077 5.86581 26.7879 5.87818 26.8683 5.87469C26.9486 5.8712 27.0275 5.85192 27.1004 5.81795C27.1732 5.78397 27.2387 5.73597 27.2931 5.67669C27.3474 5.6174 27.3895 5.54799 27.417 5.47242L28.3847 2.81344C28.4402 2.66083 28.4329 2.49241 28.3643 2.34522C28.2957 2.19802 28.1714 2.0841 28.0188 2.02852ZM34.7586 6.63023C34.6342 6.52592 34.4735 6.47526 34.3118 6.4894C34.1501 6.50353 34.0006 6.58131 33.8962 6.70563L32.0773 8.87328C31.742 9.27305 32.0306 9.87914 32.5458 9.87914C32.6353 9.87928 32.7237 9.85976 32.8048 9.82196C32.8859 9.78416 32.9577 9.729 33.0152 9.66039L34.834 7.49266C34.8857 7.43108 34.9247 7.35993 34.9489 7.28326C34.9731 7.20659 34.9819 7.12591 34.9749 7.04583C34.9679 6.96575 34.9452 6.88782 34.9081 6.81652C34.871 6.74521 34.8202 6.68191 34.7586 6.63023ZM39.1177 13.0728C39.0365 12.9322 38.9028 12.8297 38.746 12.7877C38.5892 12.7457 38.4222 12.7677 38.2816 12.8488L35.831 14.2637C35.7614 14.3039 35.7004 14.3574 35.6514 14.4211C35.6025 14.4849 35.5666 14.5577 35.5458 14.6353C35.525 14.713 35.5197 14.7939 35.5302 14.8736C35.5407 14.9533 35.5668 15.0302 35.607 15.0998C35.7761 15.393 36.1505 15.4929 36.4432 15.3241L38.8937 13.9093C39.0343 13.828 39.1369 13.6943 39.1789 13.5374C39.2209 13.3806 39.1989 13.2135 39.1177 13.0728Z" fill="#F0A70A"/>
<path d="M35.034 17.5467C33.051 17.5311 31.3332 18.6691 30.5089 20.3293C30.4601 20.4273 30.3295 20.4428 30.2568 20.361C29.6767 19.7091 28.832 19.2981 27.8908 19.2981C26.1418 19.2981 24.724 20.7159 24.724 22.4649C24.724 22.6419 24.7389 22.8155 24.7673 22.9843C24.771 23.0061 24.7699 23.0286 24.7641 23.05C24.7583 23.0713 24.7478 23.0912 24.7336 23.1082C24.7193 23.1251 24.7014 23.1387 24.6813 23.1481C24.6612 23.1574 24.6393 23.1623 24.6171 23.1623H20.0157C18.8182 23.1623 17.8063 24.1013 17.7733 25.2982C17.7394 26.5399 18.7358 27.5573 19.9699 27.5573H34.9938C37.7306 27.5573 39.9544 25.3613 39.9986 22.6352C40.0435 19.8709 37.7983 17.5684 35.034 17.5467Z" fill="#A0CAFE"/>
<path d="M40.0003 22.5525C40.0003 25.3162 37.7588 27.5576 34.9942 27.5576H19.971C18.757 27.5576 17.7734 26.5732 17.7734 25.3604C17.7734 25.0076 17.8567 24.6747 18.0045 24.3793C18.1048 24.3939 18.2086 24.4012 18.313 24.4012H33.3365C36.1011 24.4012 38.3426 22.1606 38.3426 19.3957C38.3426 19.1944 38.3304 18.9951 38.3066 18.7991C39.3447 19.7159 40.0003 21.0577 40.0003 22.5525Z" fill="#81B8FD"/>
<path d="M4.4699 20.6955C6.4038 20.6052 8.09443 21.6858 8.89615 23.2883C8.9438 23.3841 9.07286 23.4039 9.14427 23.3242C9.68802 22.7164 10.4782 22.3334 11.358 22.3334C12.9986 22.3334 14.3283 23.6634 14.3283 25.304C14.3283 25.4666 14.3148 25.6263 14.2895 25.7819C14.2859 25.8036 14.2871 25.8259 14.293 25.8472C14.2989 25.8684 14.3094 25.8881 14.3237 25.9049C14.338 25.9217 14.3558 25.9351 14.3758 25.9444C14.3958 25.9536 14.4176 25.9583 14.4397 25.9583H27.2558C28.4115 25.9583 29.3854 26.904 29.3633 28.0594C29.3422 29.1794 28.4274 30.0809 27.3026 30.0809H4.69513C2.02849 30.0809 -0.119088 27.8577 0.00513048 25.1633C0.115912 22.7594 2.06607 20.8078 4.4699 20.6955Z" fill="#C0DBFF"/>
<path d="M29.3641 28.0197C29.3641 29.1584 28.4409 30.0809 27.3031 30.0809H4.69516C2.10266 30.0809 0 27.9789 0 25.3858C0 22.962 1.83656 20.968 4.19313 20.7175C3.85204 21.381 3.67458 22.1165 3.67555 22.8626C3.67555 25.455 5.77758 27.5577 8.3707 27.5577H29.3112C29.3463 27.7063 29.3641 27.8604 29.3641 28.0197Z" fill="#A0CAFE"/>
<path d="M27.2352 25.9586C24.6717 25.9586 22.2215 27.1789 21.2824 29.513C21.2245 29.6569 21.0395 29.7009 20.9227 29.5987C18.2932 27.3001 14.0602 29.5455 14.6247 33.0832C14.6473 33.2238 14.5414 33.3517 14.3992 33.3517H11.5122C10.0193 33.3517 8.76899 34.574 8.79735 36.0666C8.82516 37.5131 10.0065 38.6773 11.4598 38.6773H27.0262C35.3827 38.6773 35.9212 25.9586 27.2352 25.9586Z" fill="#E6F1FF"/>
<path d="M32.247 28.1943C31.4527 27.854 30.5203 27.6596 29.4479 27.6596C26.8848 27.6596 24.4345 28.88 23.4958 31.2146C23.4378 31.358 23.2526 31.4023 23.1356 31.2994C20.5066 29.0009 16.2726 31.2463 16.8374 34.7848C16.8603 34.9252 16.7541 35.0534 16.6123 35.0534H13.725C12.232 35.0534 10.9817 36.2744 11.0102 37.7673C11.0159 38.0826 11.0773 38.3844 11.1841 38.6637C9.86024 38.5275 8.82352 37.4212 8.79735 36.0662C8.76891 34.5734 10.0186 33.3514 11.5122 33.3514H14.3985C14.5413 33.3514 14.6466 33.2242 14.6246 33.0829C14.0598 29.5453 18.2928 27.2998 20.922 29.5984C21.0388 29.7012 21.2241 29.6569 21.2821 29.5135C22.2216 27.179 24.671 25.9586 27.2351 25.9586C29.5541 25.9586 31.2158 26.8655 32.247 28.1943Z" fill="#D9E9FF"/>
</g>
<defs>
<filter id="filter0_d_1304_2533" x="-4" y="0" width="48" height="46.6773" filterUnits="userSpaceOnUse" color-interpolation-filters="sRGB">
<feFlood flood-opacity="0" result="BackgroundImageFix"/>
<feColorMatrix in="SourceAlpha" type="matrix" values="0 0 0 0 0 0 0 0 0 0 0 0 0 0 0 0 0 0 127 0" result="hardAlpha"/>
<feOffset dy="4"/>
<feGaussianBlur stdDeviation="2"/>
<feComposite in2="hardAlpha" operator="out"/>
<feColorMatrix type="matrix" values="0 0 0 0 0 0 0 0 0 0 0 0 0 0 0 0 0 0 0.25 0"/>
<feBlend mode="normal" in2="BackgroundImageFix" result="effect1_dropShadow_1304_2533"/>
<feBlend mode="normal" in="SourceGraphic" in2="effect1_dropShadow_1304_2533" result="shape"/>
</filter>
</defs>
</svg>
